#!OML:ASF H:\Punching\Project 1\Capture day 1\Session 1\female.ASF
:FULLY-SPECIFIED
:DEGREES
2573
root 2.06939 15.6385 7.21996 10.5634 -3.76582 -3.17071
lowerback -7.76453 -2.97053 2.68554
upperback -10.2196 -3.96827 2.85489
thorax -6.34205 -2.07073 1.41265
lowerneck -8.45304 -9.55592 -5.37041
upperneck 32.0885 -12.8956 -1.03479
head 12.2652 -6.6613 -1.17935
rclavicle -4.96962e-015 -6.36111e-015
rhumerus -40.5761 -14.0898 -69.4576
rradius 28.0132
rwrist 10.605
rhand -8.50709 -3.99245
rfingers 7.12502
rthumb 17.4209 -33.2318
lclavicle -4.96962e-015 -6.36111e-015
lhumerus -53.5672 24.2174 68.5483
lradius 33.8777
lwrist -9.5995
lhand -8.85467 18.478
lfingers 7.12502
lthumb 17.0863 47.7467
rfemur -10.7285 10.9715 20.5974
rtibia 24.1541
rfoot -18.689 -24.5533
rtoes -0.444199
lfemur -10.5684 -14.2247 -14.5257
ltibia 26.1091
lfoot -23.471 23.833
ltoes 1.77834
2574
root 2.07244 15.6389 7.21593 10.5515 -3.83283 -3.17879
lowerback -7.79043 -2.95338 2.71759
upperback -10.1736 -3.95011 2.82629
thorax -6.28156 -2.06472 1.36135
lowerneck -8.44407 -9.52706 -5.33525
upperneck 32.0855 -12.8686 -1.00819
head 12.2604 -6.64208 -1.17048
rclavicle 1.2921e-015 1.55052e-014
rhumerus -40.6443 -14.1654 -69.4547
rradius 27.922
rwrist 10.7176
rhand -8.47806 -4.09584
rfingers 7.12502
rthumb 17.4488 -33.3327
lclavicle 1.2921e-015 1.55052e-014
lhumerus -53.8499 24.474 68.0213
lradius 33.2151
lwrist -10.5397
lhand -8.44436 18.3299
lfingers 7.12502
lthumb 17.4812 47.5639
rfemur -10.747 11.0028 20.5842
rtibia 24.1615
rfoot -18.6786 -24.5246
rtoes -0.397144
lfemur -10.5453 -14.2201 -14.5413
ltibia 26.0953
lfoot -23.4881 23.8774
ltoes 1.83844
2575
root 2.07554 15.639 7.21166 10.5421 -3.8988 -3.19174
lowerback -7.81506 -2.93336 2.75455
upperback -10.1304 -3.92814 2.79766
thorax -6.22534 -2.05711 1.3077
lowerneck -8.42695 -9.49808 -5.29827
upperneck 32.0778 -12.8407 -0.985162
head 12.2516 -6.6229 -1.16233
rclavicle -1.18277e-014 -3.69739e-014
rhumerus -40.7181 -14.235 -69.4336
rradius 27.8251
rwrist 10.8508
rhand -8.45407 -4.19495
rfingers 7.12502
rthumb 17.4719 -33.4298
lclavicle -1.18277e-014 -3.69739e-014
lhumerus -54.1464 24.7102 67.4689
lradius 32.6022
lwrist -11.4442
lhand -8.03134 18.1824
lfingers 7.12502
lthumb 17.8787 47.3806
rfemur -10.7649 11.0308 20.5753
rtibia 24.1615
rfoot -18.6635 -24.4918
rtoes -0.354918
lfemur -10.5292 -14.2113 -14.5509
ltibia 26.089
lfoot -23.5052 23.919
ltoes 1.89256
2576
root 2.07865 15.6393 7.20713 10.5337 -3.96457 -3.20832
lowerback -7.8382 -2.90959 2.79537
upperback -10.0882 -3.90129 2.76728
thorax -6.17142 -2.04732 1.25038
lowerneck -8.40527 -9.46852 -5.25668
upperneck 32.0668 -12.812 -0.964768
head 12.2398 -6.60324 -1.15528
rclavicle -2.22639e-014 -2.5842e-014
rhumerus -40.7977 -14.3013 -69.3953
rradius 27.7163
rwrist 10.9963
rhand -8.45452 -4.24448
rfingers 7.12502
rthumb 17.4715 -33.4793
lclavicle -2.22639e-014 -2.5842e-014
lhumerus -54.4439 24.9161 66.908
lradius 32.05
lwrist -12.27
lhand -7.61973 18.0737
lfingers 7.12502
lthumb 18.2747 47.2353
rfemur -10.7833 11.0651 20.569
rtibia 24.1561
rfoot -18.6475 -24.4592
rtoes -0.30271
lfemur -10.5191 -14.1868 -14.5554
ltibia 26.0874
lfoot -23.5113 23.9515
ltoes 1.91853
2577
root 2.08176 15.6396 7.20236 10.5239 -4.03133 -3.2266
lowerback -7.85805 -2.88205 2.83655
upperback -10.0475 -3.86926 2.73613
thorax -6.12098 -2.03495 1.19251
lowerneck -8.37894 -9.43812 -5.21607
upperneck 32.0561 -12.7816 -0.94547
head 12.2273 -6.58317 -1.14798
rclavicle 3.3694e-014 -2.78299e-014
rhumerus -40.8849 -14.3581 -69.3399
rradius 27.6141
rwrist 11.1877
rhand -8.42633 -4.33713
rfingers 7.12502
rthumb 17.4986 -33.5696
lclavicle 3.3694e-014 -2.78299e-014
lhumerus -54.7368 25.0936 66.3462
lradius 31.5542
lwrist -12.9961
lhand -7.21639 18.0262
lfingers 7.12502
lthumb 18.6627 47.151
rfemur -10.8002 11.0841 20.5669
rtibia 24.1474
rfoot -18.6072 -24.4255
rtoes -0.33071
lfemur -10.5106 -14.1559 -14.5578
ltibia 26.0889
lfoot -23.517 23.9783
ltoes 1.94849
2578
root 2.08491 15.6399 7.19738 10.5098 -4.10132 -3.24457
lowerback -7.87347 -2.85044 2.87605
upperback -10.0063 -3.83163 2.70391
thorax -6.07229 -2.01963 1.13486
lowerneck -8.34948 -9.40635 -5.17563
upperneck 32.0439 -12.7487 -0.92744
head 12.2133 -6.56216 -1.14052
rclavicle 2.28602e-015 -3.4191e-014
rhumerus -40.9776 -14.4039 -69.2703
rradius 27.5051
rwrist 11.3765
rhand -8.42338 -4.3887
rfingers 7.12502
rthumb 17.5014 -33.6209
lclavicle 2.28602e-015 -3.4191e-014
lhumerus -55.0179 25.2419 65.7921
lradius 31.1084
lwrist -13.6141
lhand -6.84178 18.0332
lfingers 7.12502
lthumb 19.023 47.123
rfemur -10.8142 11.0911 20.5659
rtibia 24.1375
rfoot -18.5485 -24.3882
rtoes -0.418922
lfemur -10.498 -14.1164 -14.562
ltibia 26.091
lfoot -23.5233 23.9991
ltoes 1.97833
2579
root 2.08805 15.6402 7.19217 10.4918 -4.17521 -3.26287
lowerback -7.88549 -2.81465 2.91311
upperback -9.96404 -3.78823 2.67118
thorax -6.0242 -2.00122 1.07836
lowerneck -8.32093 -9.37299 -5.13396
upperneck 32.0331 -12.7128 -0.911485
head 12.1998 -6.5399 -1.13373
rclavicle -5.4964e-014 -1.59028e-014
rhumerus -41.072 -14.4369 -69.1916
rradius 27.3959
rwrist 11.5717
rhand -8.42121 -4.47068
rfingers 7.12502
rthumb 17.5035 -33.7027
lclavicle -5.4964e-014 -1.59028e-014
lhumerus -55.2832 25.3646 65.248
lradius 30.71
lwrist -14.1416
lhand -6.49908 18.0897
lfingers 7.12502
lthumb 19.3525 47.1467
rfemur -10.8253 11.094 20.5668
rtibia 24.1282
rfoot -18.4798 -24.3499
rtoes -0.546853
lfemur -10.4807 -14.075 -14.5671
ltibia 26.0922
lfoot -23.5342 24.0195
ltoes 2.01994
2580
root 2.09129 15.6403 7.18676 10.4683 -4.25246 -3.27939
lowerback -7.89404 -2.77487 2.94743
upperback -9.91838 -3.73941 2.63704
thorax -5.97409 -1.97987 1.02212
lowerneck -8.29535 -9.33877 -5.09062
upperneck 32.0203 -12.6751 -0.896943
head 12.1857 -6.51668 -1.12755
rclavicle -1.68967e-014 3.85642e-014
rhumerus -41.1626 -14.4606 -69.1075
rradius 27.2771
rwrist 11.747
rhand -8.46259 -4.53354
rfingers 7.12502
rthumb 17.4637 -33.7691
lclavicle -1.68967e-014 3.85642e-014
lhumerus -55.5275 25.4673 64.7135
lradius 30.3444
lwrist -14.6066
lhand -6.21146 18.151
lfingers 7.12502
lthumb 19.6291 47.1801
rfemur -10.833 11.0913 20.5662
rtibia 24.1209
rfoot -18.4031 -24.3063
rtoes -0.693127
lfemur -10.4542 -14.0593 -14.5779
ltibia 26.0907
lfoot -23.5576 24.0616
ltoes 2.09279
2581
root 2.09464 15.6406 7.18122 10.4417 -4.33275 -3.29098
lowerback -7.90272 -2.73143 2.97577
upperback -9.86913 -3.68569 2.60048
thorax -5.91959 -1.95567 0.966618
lowerneck -8.27582 -9.30482 -5.04465
upperneck 32.0071 -12.6371 -0.88418
head 12.1724 -6.4931 -1.12278
rclavicle -1.15295e-014 1.19271e-014
rhumerus -41.2465 -14.4928 -69.0091
rradius 27.1406
rwrist 11.9281
rhand -8.53931 -4.56733
rfingers 7.12502
rthumb 17.3899 -33.8094
lclavicle -1.15295e-014 1.19271e-014
lhumerus -55.7495 25.5543 64.1869
lradius 30.0105
lwrist -15.0361
lhand -5.97199 18.2003
lfingers 7.12502
lthumb 19.8593 47.2056
rfemur -10.8404 11.0872 20.5592
rtibia 24.1173
rfoot -18.3317 -24.2566
rtoes -0.830861
lfemur -10.4217 -14.0454 -14.5958
ltibia 26.0848
lfoot -23.5878 24.1044
ltoes 2.18913
2582
root 2.0981 15.6408 7.17558 10.4128 -4.41434 -3.2985
lowerback -7.90963 -2.68684 2.99805
upperback -9.81926 -3.63013 2.56449
thorax -5.86484 -1.93008 0.915237
lowerneck -8.25863 -9.26936 -4.99853
upperneck 31.993 -12.5953 -0.875538
head 12.1588 -6.46823 -1.11912
rclavicle 5.1684e-014 -1.82882e-014
rhumerus -41.3253 -14.5284 -68.895
rradius 26.9824
rwrist 12.1117
rhand -8.6611 -4.53891
rfingers 7.12502
rthumb 17.2726 -33.7913
lclavicle 5.1684e-014 -1.82882e-014
lhumerus -55.9599 25.6314 63.665
lradius 29.7095
lwrist -15.4527
lhand -5.77567 18.2256
lfingers 7.12502
lthumb 20.048 47.2113
rfemur -10.8485 11.0897 20.5459
rtibia 24.1186
rfoot -18.2739 -24.2051
rtoes -0.938302
lfemur -10.3841 -14.0401 -14.6196
ltibia 26.0739
lfoot -23.6205 24.154
ltoes 2.29462
2583
root 2.1016 15.641 7.16981 10.3823 -4.49664 -3.30184
lowerback -7.91529 -2.64211 3.01351
upperback -9.76879 -3.57405 2.52986
thorax -5.80949 -1.90369 0.869169
lowerneck -8.2454 -9.23292 -4.95625
upperneck 31.9797 -12.5505 -0.868288
head 12.1464 -6.44253 -1.11529
rclavicle 8.77634e-014 -9.93923e-015
rhumerus -41.396 -14.5801 -68.758
rradius 26.8019
rwrist 12.3295
rhand -8.80271 -4.47202
rfingers 7.12502
rthumb 17.1363 -33.7363
lclavicle 8.77634e-014 -9.93923e-015
lhumerus -56.1604 25.7055 63.1446
lradius 29.4377
lwrist -15.8763
lhand -5.61972 18.2125
lfingers 7.12502
lthumb 20.1979 47.1825
rfemur -10.8584 11.1035 20.5268
rtibia 24.1252
rfoot -18.2296 -24.1575
rtoes -1.00686
lfemur -10.3429 -14.032 -14.6481
ltibia 26.0578
lfoot -23.653 24.1999
ltoes 2.4086
2584
root 2.10509 15.641 7.16387 10.3515 -4.57713 -3.3012
lowerback -7.9226 -2.59718 3.02337
upperback -9.71697 -3.51759 2.49505
thorax -5.75132 -1.87668 0.825926
lowerneck -8.23718 -9.19632 -4.91313
upperneck 31.9659 -12.5041 -0.864772
head 12.1345 -6.41631 -1.11302
rclavicle -5.22804e-014 -2.38542e-015
rhumerus -41.4621 -14.6475 -68.6013
rradius 26.6058
rwrist 12.5711
rhand -8.95349 -4.3459
rfingers 7.12502
rthumb 16.9912 -33.6228
lclavicle -5.22804e-014 -2.38542e-015
lhumerus -56.3468 25.7691 62.6344
lradius 29.2003
lwrist -16.306
lhand -5.49795 18.1718
lfingers 7.12502
lthumb 20.3149 47.1294
rfemur -10.8705 11.1263 20.5024
rtibia 24.1363
rfoot -18.1968 -24.1128
rtoes -1.04127
lfemur -10.3012 -14.03 -14.6803
ltibia 26.0384
lfoot -23.6813 24.2513
ltoes 2.51437
2585
root 2.10866 15.6409 7.15775 10.3208 -4.65421 -3.29779
lowerback -7.9332 -2.55142 3.03099
upperback -9.66365 -3.46017 2.45849
thorax -5.68957 -1.84905 0.781952
lowerneck -8.23241 -9.16104 -4.86959
upperneck 31.9516 -12.4592 -0.862025
head 12.1231 -6.3907 -1.11151
rclavicle -3.52843e-014 -6.75868e-015
rhumerus -41.5251 -14.7362 -68.4255
rradius 26.4057
rwrist 12.8545
rhand -9.06696 -4.23614
rfingers 7.12502
rthumb 16.882 -33.5224
lclavicle -3.52843e-014 -6.75868e-015
lhumerus -56.5158 25.8187 62.1386
lradius 28.9969
lwrist -16.7392
lhand -5.4051 18.1136
lfingers 7.12502
lthumb 20.4041 47.0616
rfemur -10.8847 11.1435 20.4755
rtibia 24.1506
rfoot -18.1645 -24.0679
rtoes -1.08198
lfemur -10.2611 -14.0244 -14.7147
ltibia 26.0174
lfoot -23.7035 24.2996
ltoes 2.60652
2586
root 2.11231 15.6405 7.15139 10.29 -4.72637 -3.29279
lowerback -7.94462 -2.50469 3.03782
upperback -9.61101 -3.40143 2.42063
thorax -5.62808 -1.82072 0.737183
lowerneck -8.22669 -9.12716 -4.82634
upperneck 31.9371 -12.4157 -0.860677
head 12.1114 -6.36597 -1.11061
rclavicle -5.50634e-014 -2.14687e-014
rhumerus -41.5897 -14.8455 -68.2305
rradius 26.208
rwrist 13.1712
rhand -9.13486 -4.17322
rfingers 7.12502
rthumb 16.8166 -33.465
lclavicle -5.50634e-014 -2.14687e-014
lhumerus -56.6662 25.8427 61.6704
lradius 28.8289
lwrist -17.154
lhand -5.34534 18.0349
lfingers 7.12502
lthumb 20.4616 46.9767
rfemur -10.8995 11.1488 20.4476
rtibia 24.1663
rfoot -18.1299 -24.0192
rtoes -1.12935
lfemur -10.2235 -14.0204 -14.7499
ltibia 25.9971
lfoot -23.7236 24.3474
ltoes 2.69073
